<svg id="visual" viewBox="0 0 900 600" width="900" height="600" xmlns="http://www.w3.org/2000/svg" xmlns:xlink="http://www.w3.org/1999/xlink" version="1.1">
    <rect x="0" y="0" width="900" height="600" fill="#FF0066"></rect>
    <g transform="translate(438.84694361267645 275.5175549643347)">
        <path d="M107 -170.4C147 -162.2 193.4 -150.4 224.3 -121.3C255.3 -92.3 270.6 -46.2 272.8 1.2C275 48.7 263.9 97.3 241.3 140.6C218.6 183.9 184.3 221.9 142.1 230.7C100 239.5 50 219.3 6.6 207.9C-36.8 196.5 -73.7 193.9 -116.4 185.4C-159.1 176.9 -207.7 162.5 -231.1 130.6C-254.6 98.7 -252.8 49.3 -247.2 3.3C-241.5 -42.8 -232 -85.7 -207.4 -115.4C-182.7 -145.1 -142.9 -161.8 -105.8 -171.6C-68.7 -181.4 -34.3 -184.5 -0.4 -183.8C33.5 -183 67 -178.6 107 -170.4" fill="none" stroke="#BB004B" stroke-width="6"></path>
    </g>
</svg>