<svg id="visual" viewBox="0 0 900 600" width="900" height="600" xmlns="http://www.w3.org/2000/svg" xmlns:xlink="http://www.w3.org/1999/xlink" version="1.1">
    <rect x="0" y="0" width="900" height="600" fill="#FF0066"></rect>
    <g transform="translate(469.39298703905854 294.8123125111862)">
        <path d="M117.1 -195.3C151.1 -183.1 177.8 -150.5 195.7 -114.6C213.6 -78.7 222.8 -39.3 215.8 -4C208.8 31.3 185.6 62.5 167.1 97.4C148.6 132.4 134.8 171 107.7 193.7C80.7 216.4 40.3 223.2 -3.7 229.7C-47.8 236.2 -95.7 242.4 -137.2 228C-178.8 213.7 -214.1 178.8 -235.4 137.4C-256.6 96 -263.8 48 -249.5 8.3C-235.2 -31.5 -199.5 -63 -179.3 -106.3C-159.1 -149.6 -154.6 -204.7 -127.3 -220.8C-100 -236.9 -50 -213.9 -4.3 -206.6C41.5 -199.2 83 -207.4 117.1 -195.3" fill="none" stroke="#BB004B" stroke-width="6"></path>
    </g>
</svg>