<svg id="visual" viewBox="0 0 900 450" width="900" height="450" xmlns="http://www.w3.org/2000/svg" xmlns:xlink="http://www.w3.org/1999/xlink" version="1.1">
    <rect x="0" y="0" width="900" height="450" fill="#ffffff"></rect>
    <path d="M512 450L510.7 444.2C509.3 438.3 506.7 426.7 511 415.2C515.3 403.7 526.7 392.3 521.7 380.8C516.7 369.3 495.3 357.7 493.3 346.2C491.3 334.7 508.7 323.3 517.5 311.8C526.3 300.3 526.7 288.7 521.7 277C516.7 265.3 506.3 253.7 499.7 242.2C493 230.7 490 219.3 494.5 207.8C499 196.3 511 184.7 519 173C527 161.3 531 149.7 525.7 138.2C520.3 126.7 505.7 115.3 500.8 103.8C496 92.3 501 80.7 512 69.2C523 57.7 540 46.3 544.7 34.8C549.3 23.3 541.7 11.7 537.8 5.8L534 0L900 0L900 5.8C900 11.7 900 23.3 900 34.8C900 46.3 900 57.7 900 69.2C900 80.7 900 92.3 900 103.8C900 115.3 900 126.7 900 138.2C900 149.7 900 161.3 900 173C900 184.7 900 196.3 900 207.8C900 219.3 900 230.7 900 242.2C900 253.7 900 265.3 900 277C900 288.7 900 300.3 900 311.8C900 323.3 900 334.7 900 346.2C900 357.7 900 369.3 900 380.8C900 392.3 900 403.7 900 415.2C900 426.7 900 438.3 900 444.2L900 450Z" fill="#b0b0b0"></path>
    <path d="M600 450L597 444.2C594 438.3 588 426.7 584.2 415.2C580.3 403.7 578.7 392.3 572.8 380.8C567 369.3 557 357.7 552.8 346.2C548.7 334.7 550.3 323.3 546.3 311.8C542.3 300.3 532.7 288.7 537.5 277C542.3 265.3 561.7 253.7 565.2 242.2C568.7 230.7 556.3 219.3 557.7 207.8C559 196.3 574 184.7 579.8 173C585.7 161.3 582.3 149.7 576 138.2C569.7 126.7 560.3 115.3 560.2 103.8C560 92.3 569 80.7 576.7 69.2C584.3 57.7 590.7 46.3 589.2 34.8C587.7 23.3 578.3 11.7 573.7 5.8L569 0L900 0L900 5.8C900 11.7 900 23.3 900 34.8C900 46.3 900 57.7 900 69.2C900 80.7 900 92.3 900 103.8C900 115.3 900 126.7 900 138.2C900 149.7 900 161.3 900 173C900 184.7 900 196.3 900 207.8C900 219.3 900 230.7 900 242.2C900 253.7 900 265.3 900 277C900 288.7 900 300.3 900 311.8C900 323.3 900 334.7 900 346.2C900 357.7 900 369.3 900 380.8C900 392.3 900 403.7 900 415.2C900 426.7 900 438.3 900 444.2L900 450Z" fill="#959595"></path>
    <path d="M613 450L611.7 444.2C610.3 438.3 607.7 426.7 611.3 415.2C615 403.7 625 392.3 625 380.8C625 369.3 615 357.7 606 346.2C597 334.7 589 323.3 583.3 311.8C577.7 300.3 574.3 288.7 583.3 277C592.3 265.3 613.7 253.7 614.3 242.2C615 230.7 595 219.3 593 207.8C591 196.3 607 184.7 612.5 173C618 161.3 613 149.7 615.8 138.2C618.7 126.7 629.3 115.3 627.7 103.8C626 92.3 612 80.7 601.5 69.2C591 57.7 584 46.3 582.8 34.8C581.7 23.3 586.3 11.7 588.7 5.8L591 0L900 0L900 5.8C900 11.7 900 23.3 900 34.8C900 46.3 900 57.7 900 69.2C900 80.7 900 92.3 900 103.8C900 115.3 900 126.7 900 138.2C900 149.7 900 161.3 900 173C900 184.7 900 196.3 900 207.8C900 219.3 900 230.7 900 242.2C900 253.7 900 265.3 900 277C900 288.7 900 300.3 900 311.8C900 323.3 900 334.7 900 346.2C900 357.7 900 369.3 900 380.8C900 392.3 900 403.7 900 415.2C900 426.7 900 438.3 900 444.2L900 450Z" fill="#7a7a7a"></path>
    <path d="M674 450L665.8 444.2C657.7 438.3 641.3 426.7 635.7 415.2C630 403.7 635 392.3 639.5 380.8C644 369.3 648 357.7 648.3 346.2C648.7 334.7 645.3 323.3 644.3 311.8C643.3 300.3 644.7 288.7 646.7 277C648.7 265.3 651.3 253.7 648.8 242.2C646.3 230.7 638.7 219.3 639.2 207.8C639.7 196.3 648.3 184.7 648 173C647.7 161.3 638.3 149.7 634.5 138.2C630.7 126.7 632.3 115.3 639.5 103.8C646.7 92.3 659.3 80.7 659.8 69.2C660.3 57.7 648.7 46.3 649.8 34.8C651 23.3 665 11.7 672 5.8L679 0L900 0L900 5.8C900 11.7 900 23.3 900 34.8C900 46.3 900 57.7 900 69.2C900 80.7 900 92.3 900 103.8C900 115.3 900 126.7 900 138.2C900 149.7 900 161.3 900 173C900 184.7 900 196.3 900 207.8C900 219.3 900 230.7 900 242.2C900 253.7 900 265.3 900 277C900 288.7 900 300.3 900 311.8C900 323.3 900 334.7 900 346.2C900 357.7 900 369.3 900 380.8C900 392.3 900 403.7 900 415.2C900 426.7 900 438.3 900 444.2L900 450Z" fill="#606060"></path>
    <path d="M698 450L696.2 444.2C694.3 438.3 690.7 426.7 692.2 415.2C693.7 403.7 700.3 392.3 702.7 380.8C705 369.3 703 357.7 703.7 346.2C704.3 334.7 707.7 323.3 706.7 311.8C705.7 300.3 700.3 288.7 693.2 277C686 265.3 677 253.7 673 242.2C669 230.7 670 219.3 673.8 207.8C677.7 196.3 684.3 184.7 691.7 173C699 161.3 707 149.7 706 138.2C705 126.7 695 115.3 696.2 103.8C697.3 92.3 709.7 80.7 713.2 69.2C716.7 57.7 711.3 46.3 706.3 34.8C701.3 23.3 696.7 11.7 694.3 5.8L692 0L900 0L900 5.8C900 11.7 900 23.3 900 34.8C900 46.3 900 57.7 900 69.2C900 80.7 900 92.3 900 103.8C900 115.3 900 126.7 900 138.2C900 149.7 900 161.3 900 173C900 184.7 900 196.3 900 207.8C900 219.3 900 230.7 900 242.2C900 253.7 900 265.3 900 277C900 288.7 900 300.3 900 311.8C900 323.3 900 334.7 900 346.2C900 357.7 900 369.3 900 380.8C900 392.3 900 403.7 900 415.2C900 426.7 900 438.3 900 444.2L900 450Z" fill="#484848"></path>
    <path d="M733 450L731.2 444.2C729.3 438.3 725.7 426.7 726.2 415.2C726.7 403.7 731.3 392.3 736 380.8C740.7 369.3 745.3 357.7 746 346.2C746.7 334.7 743.3 323.3 740.3 311.8C737.3 300.3 734.7 288.7 736.3 277C738 265.3 744 253.7 745.8 242.2C747.7 230.7 745.3 219.3 745.8 207.8C746.3 196.3 749.7 184.7 746.7 173C743.7 161.3 734.3 149.7 732 138.2C729.7 126.7 734.3 115.3 739 103.8C743.7 92.3 748.3 80.7 746.5 69.2C744.7 57.7 736.3 46.3 734.2 34.8C732 23.3 736 11.7 738 5.8L740 0L900 0L900 5.8C900 11.7 900 23.3 900 34.8C900 46.3 900 57.7 900 69.2C900 80.7 900 92.3 900 103.8C900 115.3 900 126.7 900 138.2C900 149.7 900 161.3 900 173C900 184.7 900 196.3 900 207.8C900 219.3 900 230.7 900 242.2C900 253.7 900 265.3 900 277C900 288.7 900 300.3 900 311.8C900 323.3 900 334.7 900 346.2C900 357.7 900 369.3 900 380.8C900 392.3 900 403.7 900 415.2C900 426.7 900 438.3 900 444.2L900 450Z" fill="#313131"></path>
    <path d="M800 450L798.3 444.2C796.7 438.3 793.3 426.7 789 415.2C784.7 403.7 779.3 392.3 779 380.8C778.7 369.3 783.3 357.7 782.5 346.2C781.7 334.7 775.3 323.3 774.5 311.8C773.7 300.3 778.3 288.7 783.7 277C789 265.3 795 253.7 794.8 242.2C794.7 230.7 788.3 219.3 786.3 207.8C784.3 196.3 786.7 184.7 790 173C793.3 161.3 797.7 149.7 796.7 138.2C795.7 126.7 789.3 115.3 789 103.8C788.7 92.3 794.3 80.7 795 69.2C795.7 57.7 791.3 46.3 787.3 34.8C783.3 23.3 779.7 11.7 777.8 5.8L776 0L900 0L900 5.8C900 11.7 900 23.3 900 34.8C900 46.3 900 57.7 900 69.2C900 80.7 900 92.3 900 103.8C900 115.3 900 126.7 900 138.2C900 149.7 900 161.3 900 173C900 184.7 900 196.3 900 207.8C900 219.3 900 230.7 900 242.2C900 253.7 900 265.3 900 277C900 288.7 900 300.3 900 311.8C900 323.3 900 334.7 900 346.2C900 357.7 900 369.3 900 380.8C900 392.3 900 403.7 900 415.2C900 426.7 900 438.3 900 444.2L900 450Z" fill="#1c1c1c"></path>
    <path d="M844 450L839.7 444.2C835.3 438.3 826.7 426.7 824 415.2C821.3 403.7 824.7 392.3 827 380.8C829.3 369.3 830.7 357.7 829.8 346.2C829 334.7 826 323.3 824 311.8C822 300.3 821 288.7 820.8 277C820.7 265.3 821.3 253.7 821.3 242.2C821.3 230.7 820.7 219.3 821.7 207.8C822.7 196.3 825.3 184.7 825.8 173C826.3 161.3 824.7 149.7 825.2 138.2C825.7 126.7 828.3 115.3 831.2 103.8C834 92.3 837 80.7 838.2 69.2C839.3 57.7 838.7 46.3 835.7 34.8C832.7 23.3 827.3 11.7 824.7 5.8L822 0L900 0L900 5.8C900 11.7 900 23.3 900 34.8C900 46.3 900 57.7 900 69.2C900 80.7 900 92.3 900 103.8C900 115.3 900 126.7 900 138.2C900 149.7 900 161.3 900 173C900 184.7 900 196.3 900 207.8C900 219.3 900 230.7 900 242.2C900 253.7 900 265.3 900 277C900 288.7 900 300.3 900 311.8C900 323.3 900 334.7 900 346.2C900 357.7 900 369.3 900 380.8C900 392.3 900 403.7 900 415.2C900 426.7 900 438.3 900 444.2L900 450Z" fill="#000000"></path>
</svg>