<svg id="visual" viewBox="0 0 900 450" width="900" height="450" xmlns="http://www.w3.org/2000/svg" xmlns:xlink="http://www.w3.org/1999/xlink" version="1.1">
    <rect x="0" y="0" width="900" height="450" fill="#ffffff"></rect>
    <path d="M513 450L516.2 444.2C519.3 438.3 525.7 426.7 529.2 415.2C532.7 403.7 533.3 392.3 526.3 380.8C519.3 369.3 504.7 357.7 496.3 346.2C488 334.7 486 323.3 486.7 311.8C487.3 300.3 490.7 288.7 491.3 277C492 265.3 490 253.7 492.8 242.2C495.7 230.7 503.3 219.3 507.7 207.8C512 196.3 513 184.7 519.7 173C526.3 161.3 538.7 149.7 541.7 138.2C544.7 126.7 538.3 115.3 528.3 103.8C518.3 92.3 504.7 80.7 501.7 69.2C498.7 57.7 506.3 46.3 517.7 34.8C529 23.3 544 11.7 551.5 5.8L559 0L900 0L900 5.8C900 11.7 900 23.3 900 34.8C900 46.3 900 57.7 900 69.2C900 80.7 900 92.3 900 103.8C900 115.3 900 126.7 900 138.2C900 149.7 900 161.3 900 173C900 184.7 900 196.3 900 207.8C900 219.3 900 230.7 900 242.2C900 253.7 900 265.3 900 277C900 288.7 900 300.3 900 311.8C900 323.3 900 334.7 900 346.2C900 357.7 900 369.3 900 380.8C900 392.3 900 403.7 900 415.2C900 426.7 900 438.3 900 444.2L900 450Z" fill="#b0b0b0"></path>
    <path d="M542 450L537.8 444.2C533.7 438.3 525.3 426.7 535 415.2C544.7 403.7 572.3 392.3 578.2 380.8C584 369.3 568 357.7 559.5 346.2C551 334.7 550 323.3 548.3 311.8C546.7 300.3 544.3 288.7 543.7 277C543 265.3 544 253.7 542.8 242.2C541.7 230.7 538.3 219.3 542.5 207.8C546.7 196.3 558.3 184.7 568.8 173C579.3 161.3 588.7 149.7 583.3 138.2C578 126.7 558 115.3 552.8 103.8C547.7 92.3 557.3 80.7 557.2 69.2C557 57.7 547 46.3 544.5 34.8C542 23.3 547 11.7 549.5 5.8L552 0L900 0L900 5.8C900 11.7 900 23.3 900 34.8C900 46.3 900 57.7 900 69.2C900 80.7 900 92.3 900 103.8C900 115.3 900 126.7 900 138.2C900 149.7 900 161.3 900 173C900 184.7 900 196.3 900 207.8C900 219.3 900 230.7 900 242.2C900 253.7 900 265.3 900 277C900 288.7 900 300.3 900 311.8C900 323.3 900 334.7 900 346.2C900 357.7 900 369.3 900 380.8C900 392.3 900 403.7 900 415.2C900 426.7 900 438.3 900 444.2L900 450Z" fill="#959595"></path>
    <path d="M605 450L605.7 444.2C606.3 438.3 607.7 426.7 612.8 415.2C618 403.7 627 392.3 626.7 380.8C626.3 369.3 616.7 357.7 606 346.2C595.3 334.7 583.7 323.3 580.5 311.8C577.3 300.3 582.7 288.7 589.7 277C596.7 265.3 605.3 253.7 610.5 242.2C615.7 230.7 617.3 219.3 620.8 207.8C624.3 196.3 629.7 184.7 631.5 173C633.3 161.3 631.7 149.7 622.8 138.2C614 126.7 598 115.3 599.3 103.8C600.7 92.3 619.3 80.7 626.8 69.2C634.3 57.7 630.7 46.3 623.5 34.8C616.3 23.3 605.7 11.7 600.3 5.8L595 0L900 0L900 5.8C900 11.7 900 23.3 900 34.8C900 46.3 900 57.7 900 69.2C900 80.7 900 92.3 900 103.8C900 115.3 900 126.7 900 138.2C900 149.7 900 161.3 900 173C900 184.7 900 196.3 900 207.8C900 219.3 900 230.7 900 242.2C900 253.7 900 265.3 900 277C900 288.7 900 300.3 900 311.8C900 323.3 900 334.7 900 346.2C900 357.7 900 369.3 900 380.8C900 392.3 900 403.7 900 415.2C900 426.7 900 438.3 900 444.2L900 450Z" fill="#7a7a7a"></path>
    <path d="M676 450L668.5 444.2C661 438.3 646 426.7 637.3 415.2C628.7 403.7 626.3 392.3 634.8 380.8C643.3 369.3 662.7 357.7 661.8 346.2C661 334.7 640 323.3 638.7 311.8C637.3 300.3 655.7 288.7 666 277C676.3 265.3 678.7 253.7 674.8 242.2C671 230.7 661 219.3 658.2 207.8C655.3 196.3 659.7 184.7 656.5 173C653.3 161.3 642.7 149.7 641.7 138.2C640.7 126.7 649.3 115.3 652.2 103.8C655 92.3 652 80.7 655.5 69.2C659 57.7 669 46.3 673.5 34.8C678 23.3 677 11.7 676.5 5.8L676 0L900 0L900 5.8C900 11.7 900 23.3 900 34.8C900 46.3 900 57.7 900 69.2C900 80.7 900 92.3 900 103.8C900 115.3 900 126.7 900 138.2C900 149.7 900 161.3 900 173C900 184.7 900 196.3 900 207.8C900 219.3 900 230.7 900 242.2C900 253.7 900 265.3 900 277C900 288.7 900 300.3 900 311.8C900 323.3 900 334.7 900 346.2C900 357.7 900 369.3 900 380.8C900 392.3 900 403.7 900 415.2C900 426.7 900 438.3 900 444.2L900 450Z" fill="#606060"></path>
    <path d="M679 450L680.5 444.2C682 438.3 685 426.7 684.5 415.2C684 403.7 680 392.3 683.3 380.8C686.7 369.3 697.3 357.7 701.8 346.2C706.3 334.7 704.7 323.3 704.2 311.8C703.7 300.3 704.3 288.7 700.7 277C697 265.3 689 253.7 686.5 242.2C684 230.7 687 219.3 688.8 207.8C690.7 196.3 691.3 184.7 689.2 173C687 161.3 682 149.7 685.7 138.2C689.3 126.7 701.7 115.3 702.7 103.8C703.7 92.3 693.3 80.7 693.7 69.2C694 57.7 705 46.3 711.2 34.8C717.3 23.3 718.7 11.7 719.3 5.8L720 0L900 0L900 5.8C900 11.7 900 23.3 900 34.8C900 46.3 900 57.7 900 69.2C900 80.7 900 92.3 900 103.8C900 115.3 900 126.7 900 138.2C900 149.7 900 161.3 900 173C900 184.7 900 196.3 900 207.8C900 219.3 900 230.7 900 242.2C900 253.7 900 265.3 900 277C900 288.7 900 300.3 900 311.8C900 323.3 900 334.7 900 346.2C900 357.7 900 369.3 900 380.8C900 392.3 900 403.7 900 415.2C900 426.7 900 438.3 900 444.2L900 450Z" fill="#484848"></path>
    <path d="M741 450L740.7 444.2C740.3 438.3 739.7 426.7 736.3 415.2C733 403.7 727 392.3 723.3 380.8C719.7 369.3 718.3 357.7 724.5 346.2C730.7 334.7 744.3 323.3 746.5 311.8C748.7 300.3 739.3 288.7 738.2 277C737 265.3 744 253.7 748.8 242.2C753.7 230.7 756.3 219.3 756.7 207.8C757 196.3 755 184.7 754 173C753 161.3 753 149.7 747.5 138.2C742 126.7 731 115.3 729 103.8C727 92.3 734 80.7 737.2 69.2C740.3 57.7 739.7 46.3 741.8 34.8C744 23.3 749 11.7 751.5 5.8L754 0L900 0L900 5.8C900 11.7 900 23.3 900 34.8C900 46.3 900 57.7 900 69.2C900 80.7 900 92.3 900 103.8C900 115.3 900 126.7 900 138.2C900 149.7 900 161.3 900 173C900 184.7 900 196.3 900 207.8C900 219.3 900 230.7 900 242.2C900 253.7 900 265.3 900 277C900 288.7 900 300.3 900 311.8C900 323.3 900 334.7 900 346.2C900 357.7 900 369.3 900 380.8C900 392.3 900 403.7 900 415.2C900 426.7 900 438.3 900 444.2L900 450Z" fill="#313131"></path>
    <path d="M774 450L773.5 444.2C773 438.3 772 426.7 772.5 415.2C773 403.7 775 392.3 778.5 380.8C782 369.3 787 357.7 785.3 346.2C783.7 334.7 775.3 323.3 773.3 311.8C771.3 300.3 775.7 288.7 780.3 277C785 265.3 790 253.7 791.7 242.2C793.3 230.7 791.7 219.3 790.7 207.8C789.7 196.3 789.3 184.7 786.7 173C784 161.3 779 149.7 776.2 138.2C773.3 126.7 772.7 115.3 773.2 103.8C773.7 92.3 775.3 80.7 775 69.2C774.7 57.7 772.3 46.3 774.2 34.8C776 23.3 782 11.7 785 5.8L788 0L900 0L900 5.8C900 11.7 900 23.3 900 34.8C900 46.3 900 57.7 900 69.2C900 80.7 900 92.3 900 103.8C900 115.3 900 126.7 900 138.2C900 149.7 900 161.3 900 173C900 184.7 900 196.3 900 207.8C900 219.3 900 230.7 900 242.2C900 253.7 900 265.3 900 277C900 288.7 900 300.3 900 311.8C900 323.3 900 334.7 900 346.2C900 357.7 900 369.3 900 380.8C900 392.3 900 403.7 900 415.2C900 426.7 900 438.3 900 444.2L900 450Z" fill="#1c1c1c"></path>
    <path d="M844 450L840.8 444.2C837.7 438.3 831.3 426.7 831.3 415.2C831.3 403.7 837.7 392.3 838.7 380.8C839.7 369.3 835.3 357.7 831.5 346.2C827.7 334.7 824.3 323.3 823.7 311.8C823 300.3 825 288.7 828 277C831 265.3 835 253.7 836.3 242.2C837.7 230.7 836.3 219.3 835.3 207.8C834.3 196.3 833.7 184.7 832.7 173C831.7 161.3 830.3 149.7 829.2 138.2C828 126.7 827 115.3 828.8 103.8C830.7 92.3 835.3 80.7 833.8 69.2C832.3 57.7 824.7 46.3 821.5 34.8C818.3 23.3 819.7 11.7 820.3 5.8L821 0L900 0L900 5.8C900 11.7 900 23.3 900 34.8C900 46.3 900 57.7 900 69.2C900 80.7 900 92.3 900 103.8C900 115.3 900 126.7 900 138.2C900 149.7 900 161.3 900 173C900 184.7 900 196.3 900 207.8C900 219.3 900 230.7 900 242.2C900 253.7 900 265.3 900 277C900 288.7 900 300.3 900 311.8C900 323.3 900 334.7 900 346.2C900 357.7 900 369.3 900 380.8C900 392.3 900 403.7 900 415.2C900 426.7 900 438.3 900 444.2L900 450Z" fill="#000000"></path>
</svg>